<svg xmlns="http://www.w3.org/2000/svg" version="1.1" xmlns:xlink="http://www.w3.org/1999/xlink" width="512" height="512" x="0" y="0" viewBox="0 0 128 128" style="enable-background:new 0 0 512 512" xml:space="preserve"><g><path fill="#d07c3f" d="M6 0h116v99.9H6.1L6 0z" opacity="1" data-original="#d07c3f"></path><path fill="#eec65d" d="M0 24v96.7c0 4.7 3.8 7.3 8.5 7.3h111c4.7 0 8.5-2.6 8.5-7.3V24c0 .1-127.9 0-128 0zM18 8.1 6 0v20h12zM122 0l-12 8v12h12z" opacity="1" data-original="#eec65d"></path><path fill="#dca34f" d="M18 24V8L-.1 24zm92-16v16h18.2z" opacity="1" data-original="#dca34f"></path><path fill="#d07c3f" d="M28.4 47c-3 0-5.5 2.5-5.5 5.5s2.4 5.5 5.5 5.5c3 0 5.5-2.5 5.5-5.5.1-3-2.4-5.5-5.5-5.5zm67 0c-3 0-5.5 2.5-5.5 5.5s2.4 5.5 5.5 5.5c3 0 5.5-2.5 5.5-5.5.1-3-2.4-5.5-5.5-5.5z" opacity="1" data-original="#d07c3f"></path><path fill="#cba94f" d="M62 93c-19.9 0-36-17.6-36-39.3 0-1.5 1.1-2.7 2.5-2.7s2.5 1.2 2.5 2.7c0 18.7 13.9 33.8 31 33.8s31-15.2 31-33.8c0-1.5 1.1-2.7 2.5-2.7s2.5 1.2 2.5 2.7C98 75.4 81.8 93 62 93z" opacity="1" data-original="#cba94f"></path><path fill="#ffffff" d="M62 89.9c-19.9 0-36-16.3-36-36.4 0-1.4 1.1-2.5 2.5-2.5s2.5 1.1 2.5 2.5c0 17.3 13.9 31.4 31 31.4s31-14.1 31-31.4c0-1.4 1.1-2.5 2.5-2.5s2.5 1.1 2.5 2.5c0 20.1-16.2 36.4-36 36.4z" opacity="1" data-original="#ffffff"></path></g></svg>